<?xml version="1.0"?>
<svg xmlns="http://www.w3.org/2000/svg" xmlns:xlink="http://www.w3.org/1999/xlink" version="1.1" viewBox="0 0 252 252" width="50px" height="50px"><g fill="none" fill-rule="nonzero" stroke="none" stroke-width="1" stroke-linecap="butt" stroke-linejoin="miter" stroke-miterlimit="10" stroke-dasharray="" stroke-dashoffset="0" font-family="none" font-weight="none" font-size="none" text-anchor="none" style="mix-blend-mode: normal"><path d="M0,252v-252h252v252z" fill="none"/><g id="original-icon" fill="#ffffff"><g id="surface1"><path d="M63,39.375c-12.95068,0 -23.625,10.67432 -23.625,23.625v126c0,12.95068 10.67432,23.625 23.625,23.625h126c12.95068,0 23.625,-10.67432 23.625,-23.625v-126c0,-12.95068 -10.67432,-23.625 -23.625,-23.625zM165.375,63h23.625v23.625h-23.625zM126,94.5c17.50342,0 31.5,13.99658 31.5,31.5c0,17.50342 -13.99658,31.5 -31.5,31.5c-17.50342,0 -31.5,-13.99658 -31.5,-31.5c0,-17.50342 13.99658,-31.5 31.5,-31.5zM55.125,110.25h26.33203c-1.75342,4.92188 -2.70703,10.24365 -2.70703,15.75c0,25.99365 21.25635,47.25 47.25,47.25c25.99365,0 47.25,-21.25635 47.25,-47.25c0,-5.50635 -0.95362,-10.82812 -2.70703,-15.75h26.33203v78.75c0,4.46045 -3.41455,7.875 -7.875,7.875h-126c-4.46045,0 -7.875,-3.41455 -7.875,-7.875z"/></g></g></g></svg>
