<?xml version="1.0" encoding="UTF-8" standalone="no"?>
<!-- Generator: Adobe Illustrator 19.2.1, SVG Export Plug-In . SVG Version: 6.00 Build 0)  -->

<svg
   xmlns:dc="http://purl.org/dc/elements/1.1/"
   xmlns:cc="http://creativecommons.org/ns#"
   xmlns:rdf="http://www.w3.org/1999/02/22-rdf-syntax-ns#"
   xmlns:svg="http://www.w3.org/2000/svg"
   xmlns="http://www.w3.org/2000/svg"
   xmlns:sodipodi="http://sodipodi.sourceforge.net/DTD/sodipodi-0.dtd"
   xmlns:inkscape="http://www.inkscape.org/namespaces/inkscape"
   version="1.1"
   id="Layer_1"
   x="0px"
   y="0px"
   viewBox="0 0 48 48"
   style="enable-background:new 0 0 48 48;"
   xml:space="preserve"
   width="252px"
   height="252px"
   sodipodi:docname="icons8-google-play.svg"
   inkscape:version="0.92.2 (5c3e80d, 2017-08-06)"><metadata
     id="metadata15"><rdf:RDF><cc:Work
         rdf:about=""><dc:format>image/svg+xml</dc:format><dc:type
           rdf:resource="http://purl.org/dc/dcmitype/StillImage" /><dc:title></dc:title></cc:Work></rdf:RDF></metadata><defs
     id="defs13" /><sodipodi:namedview
     pagecolor="#ffffff"
     bordercolor="#666666"
     borderopacity="1"
     objecttolerance="10"
     gridtolerance="10"
     guidetolerance="10"
     inkscape:pageopacity="0"
     inkscape:pageshadow="2"
     inkscape:window-width="1243"
     inkscape:window-height="803"
     id="namedview11"
     showgrid="false"
     inkscape:zoom="0.93650794"
     inkscape:cx="-4.2711864"
     inkscape:cy="126"
     inkscape:window-x="0"
     inkscape:window-y="0"
     inkscape:window-maximized="0"
     inkscape:current-layer="Layer_1" /><path
     style="fill:#ffffff;fill-opacity:1"
     d="M7.705,4.043C7.292,4.15,7,4.507,7,5.121c0,1.802,0,18.795,0,18.795S7,42.28,7,43.091  c0,0.446,0.197,0.745,0.5,0.856l20.181-20.064L7.705,4.043z"
     id="path2" /><path
     style="fill:#cfc7e7;fill-opacity:1"
     d="M33.237,18.36l-8.307-4.796c0,0-15.245-8.803-16.141-9.32C8.401,4.02,8.019,3.961,7.705,4.043  l19.977,19.84L33.237,18.36z"
     id="path4" /><path
     style="fill:#8e7ebf;fill-opacity:1"
     d="M8.417,43.802c0.532-0.308,15.284-8.825,24.865-14.357l-5.601-5.562L7.5,43.947  C7.748,44.038,8.066,44.004,8.417,43.802z"
     id="path6" /><path
     style="fill:#bfb9cf;fill-opacity:1"
     d="M41.398,23.071c-0.796-0.429-8.1-4.676-8.1-4.676l-0.061-0.035l-5.556,5.523l5.601,5.562  c4.432-2.559,7.761-4.48,8.059-4.653C42.285,24.248,42.194,23.5,41.398,23.071z"
     id="path8" /></svg>